<svg width="47" height="49" viewBox="0 0 47 49" fill="none" xmlns="http://www.w3.org/2000/svg">
<g filter="url(#filter0_dd_1289_6123)">
<rect x="3" y="3" width="40" height="40" rx="20" fill="white" fill-opacity="0.01" shape-rendering="crispEdges"/>
<path d="M26.8539 15.1089V17.4673H25.456C24.9042 17.4673 24.5489 17.587 24.3901 17.8265C24.2313 18.066 24.1519 18.3757 24.1519 18.7558V20.4425H26.7679L26.4165 23.082H24.1519V29.8525H21.4187V23.082H19.1462V20.4425H21.4187V18.4903C21.4187 17.928 21.502 17.4308 21.6686 16.9987C21.83 16.5614 22.0603 16.1957 22.3597 15.9015C22.659 15.6074 23.017 15.3848 23.4335 15.2339C23.8551 15.0829 24.3159 15.0074 24.8157 15.0074C25.2998 15.0074 25.7306 15.0204 26.1081 15.0464C26.4855 15.0725 26.7341 15.0933 26.8539 15.1089Z" fill="#1A6DD4"/>
</g>
<defs>
<filter id="filter0_dd_1289_6123" x="0" y="0" width="47" height="49" filterUnits="userSpaceOnUse" color-interpolation-filters="sRGB">
<feFlood flood-opacity="0" result="BackgroundImageFix"/>
<feColorMatrix in="SourceAlpha" type="matrix" values="0 0 0 0 0 0 0 0 0 0 0 0 0 0 0 0 0 0 127 0" result="hardAlpha"/>
<feMorphology radius="1" operator="erode" in="SourceAlpha" result="effect1_dropShadow_1289_6123"/>
<feOffset dx="1" dy="3"/>
<feGaussianBlur stdDeviation="2"/>
<feComposite in2="hardAlpha" operator="out"/>
<feColorMatrix type="matrix" values="0 0 0 0 0 0 0 0 0 0 0 0 0 0 0 0 0 0 0.12 0"/>
<feBlend mode="normal" in2="BackgroundImageFix" result="effect1_dropShadow_1289_6123"/>
<feColorMatrix in="SourceAlpha" type="matrix" values="0 0 0 0 0 0 0 0 0 0 0 0 0 0 0 0 0 0 127 0" result="hardAlpha"/>
<feOffset dx="-1" dy="-1"/>
<feGaussianBlur stdDeviation="1"/>
<feComposite in2="hardAlpha" operator="out"/>
<feColorMatrix type="matrix" values="0 0 0 0 0 0 0 0 0 0 0 0 0 0 0 0 0 0 0.05 0"/>
<feBlend mode="normal" in2="effect1_dropShadow_1289_6123" result="effect2_dropShadow_1289_6123"/>
<feBlend mode="normal" in="SourceGraphic" in2="effect2_dropShadow_1289_6123" result="shape"/>
</filter>
</defs>
</svg>
