<svg width="47" height="49" viewBox="0 0 47 49" fill="none" xmlns="http://www.w3.org/2000/svg">
<g filter="url(#filter0_dd_1289_6133)">
<rect x="3" y="3" width="40" height="40" rx="20" fill="white" fill-opacity="0.01" shape-rendering="crispEdges"/>
<path d="M19.262 20.5821V29.4253H16.3169V20.5821H19.262ZM19.4495 17.848C19.4495 18.0615 19.413 18.2594 19.3401 18.4417C19.262 18.6292 19.1513 18.7919 19.0081 18.9299C18.8649 19.0679 18.6891 19.176 18.4808 19.2541C18.2777 19.3374 18.0459 19.3791 17.7855 19.3791H17.7699C17.5199 19.3791 17.296 19.3374 17.0981 19.2541C16.9002 19.176 16.7296 19.0679 16.5864 18.9299C16.4432 18.7919 16.3351 18.6292 16.2622 18.4417C16.1841 18.2594 16.145 18.0615 16.145 17.848C16.145 17.6344 16.1841 17.4339 16.2622 17.2464C16.3403 17.059 16.4523 16.8975 16.5981 16.7621C16.7439 16.6267 16.9184 16.5199 17.1215 16.4418C17.3298 16.3637 17.559 16.3246 17.809 16.3246C18.3089 16.3246 18.706 16.4704 19.0003 16.7621C19.2945 17.0537 19.4443 17.4157 19.4495 17.848ZM29.855 24.3553V29.4253H26.9177V24.6991C26.9177 24.4022 26.8917 24.1314 26.8396 23.8866C26.7823 23.6366 26.6938 23.4244 26.574 23.2499C26.4542 23.0755 26.3006 22.9388 26.1131 22.8398C25.9256 22.7461 25.6991 22.6992 25.4334 22.6992C25.0272 22.6992 24.7004 22.8112 24.453 23.0351C24.2057 23.259 24.0273 23.5038 23.9179 23.7694C23.8867 23.8684 23.8632 23.9804 23.8476 24.1053C23.832 24.2303 23.8242 24.3579 23.8242 24.4881V29.4253H20.8869C20.8973 27.4254 20.9025 25.837 20.9025 24.66C20.9025 23.4882 20.9012 22.6002 20.8986 21.9961C20.896 21.392 20.8921 21.004 20.8869 20.8321C20.8869 20.6655 20.8869 20.5821 20.8869 20.5821H23.8242V21.8633H23.8086C23.9023 21.7123 24.0195 21.5508 24.1601 21.379C24.3007 21.2019 24.4765 21.0391 24.6874 20.8907C24.8983 20.7423 25.1496 20.6186 25.4413 20.5197C25.7329 20.4259 26.0766 20.379 26.4724 20.379C26.9568 20.379 27.4073 20.4572 27.8239 20.6134C28.2353 20.7748 28.5921 21.0196 28.8941 21.3477C29.1962 21.6758 29.4332 22.0899 29.605 22.5898C29.7717 23.0898 29.855 23.6783 29.855 24.3553Z" fill="#02669A"/>
</g>
<defs>
<filter id="filter0_dd_1289_6133" x="0" y="0" width="47" height="49" filterUnits="userSpaceOnUse" color-interpolation-filters="sRGB">
<feFlood flood-opacity="0" result="BackgroundImageFix"/>
<feColorMatrix in="SourceAlpha" type="matrix" values="0 0 0 0 0 0 0 0 0 0 0 0 0 0 0 0 0 0 127 0" result="hardAlpha"/>
<feMorphology radius="1" operator="erode" in="SourceAlpha" result="effect1_dropShadow_1289_6133"/>
<feOffset dx="1" dy="3"/>
<feGaussianBlur stdDeviation="2"/>
<feComposite in2="hardAlpha" operator="out"/>
<feColorMatrix type="matrix" values="0 0 0 0 0 0 0 0 0 0 0 0 0 0 0 0 0 0 0.12 0"/>
<feBlend mode="normal" in2="BackgroundImageFix" result="effect1_dropShadow_1289_6133"/>
<feColorMatrix in="SourceAlpha" type="matrix" values="0 0 0 0 0 0 0 0 0 0 0 0 0 0 0 0 0 0 127 0" result="hardAlpha"/>
<feOffset dx="-1" dy="-1"/>
<feGaussianBlur stdDeviation="1"/>
<feComposite in2="hardAlpha" operator="out"/>
<feColorMatrix type="matrix" values="0 0 0 0 0 0 0 0 0 0 0 0 0 0 0 0 0 0 0.05 0"/>
<feBlend mode="normal" in2="effect1_dropShadow_1289_6133" result="effect2_dropShadow_1289_6133"/>
<feBlend mode="normal" in="SourceGraphic" in2="effect2_dropShadow_1289_6133" result="shape"/>
</filter>
</defs>
</svg>
