<svg width="47" height="49" viewBox="0 0 47 49" fill="none" xmlns="http://www.w3.org/2000/svg">
<g filter="url(#filter0_dd_1289_6143)">
<rect x="3" y="3" width="40" height="40" rx="20" fill="white" fill-opacity="0.01" shape-rendering="crispEdges"/>
<path d="M29.8594 28.4258V21.5742C29.7656 21.6784 29.6667 21.7799 29.5625 21.8789C29.4583 21.9779 29.3516 22.0716 29.2422 22.1602C28.9245 22.4049 28.6042 22.6523 28.2812 22.9023C27.9635 23.1523 27.6458 23.4023 27.3281 23.6523C27.0104 23.9023 26.6927 24.1549 26.375 24.4102C26.0625 24.6654 25.75 24.9206 25.4375 25.1758C25.2708 25.3164 25.0938 25.4622 24.9062 25.6133C24.7188 25.7591 24.5234 25.8932 24.3203 26.0156C24.1172 26.138 23.9062 26.2383 23.6875 26.3164C23.4688 26.3893 23.2422 26.4258 23.0078 26.4258H22.9922C22.7578 26.4258 22.5312 26.3893 22.3125 26.3164C22.0938 26.2383 21.8828 26.138 21.6797 26.0156C21.4766 25.8932 21.2812 25.7591 21.0938 25.6133C20.9062 25.4622 20.7292 25.3164 20.5625 25.1758C20.25 24.9206 19.9375 24.6654 19.625 24.4102C19.3073 24.1549 18.9896 23.9023 18.6719 23.6523C18.3542 23.4023 18.0365 23.1523 17.7188 22.9023C17.3958 22.6523 17.0755 22.4049 16.7578 22.1602C16.6484 22.0716 16.5417 21.9779 16.4375 21.8789C16.3333 21.7799 16.2344 21.6784 16.1406 21.5742V28.4258C16.1406 28.5039 16.1693 28.5716 16.2266 28.6289C16.2839 28.6862 16.3516 28.7148 16.4297 28.7148H29.5703C29.6484 28.7148 29.7161 28.6862 29.7734 28.6289C29.8307 28.5716 29.8594 28.5039 29.8594 28.4258ZM29.8594 19.043C29.8594 18.9336 29.8542 18.8034 29.8438 18.6523C29.8333 18.5013 29.7422 18.4258 29.5703 18.4258H16.4297C16.3516 18.4258 16.2839 18.4544 16.2266 18.5117C16.1693 18.569 16.1406 18.6367 16.1406 18.7148C16.1406 18.9701 16.1719 19.2148 16.2344 19.4492C16.2969 19.6888 16.3854 19.9154 16.5 20.1289C16.6146 20.3424 16.7526 20.543 16.9141 20.7305C17.0755 20.918 17.2552 21.0924 17.4531 21.2539C17.7552 21.4883 18.0547 21.7227 18.3516 21.957C18.6536 22.1914 18.9531 22.4271 19.25 22.6641C19.5469 22.901 19.8438 23.1367 20.1406 23.3711C20.4427 23.6055 20.7422 23.8424 21.0391 24.082C21.1536 24.1758 21.2917 24.293 21.4531 24.4336C21.6146 24.569 21.7826 24.7005 21.957 24.8281C22.1315 24.9557 22.3099 25.0638 22.4922 25.1523C22.6693 25.2409 22.8359 25.2852 22.9922 25.2852H23.0078C23.1641 25.2852 23.3307 25.2409 23.5078 25.1523C23.6901 25.0638 23.8685 24.9557 24.043 24.8281C24.2174 24.7005 24.3854 24.569 24.5469 24.4336C24.7083 24.293 24.8464 24.1758 24.9609 24.082C25.2578 23.8424 25.5573 23.6055 25.8594 23.3711C26.1562 23.1367 26.4531 22.901 26.75 22.6641C27.0469 22.4271 27.3464 22.1914 27.6484 21.957C27.9453 21.7227 28.2448 21.4883 28.5469 21.2539C28.6927 21.1393 28.8411 20.9961 28.9922 20.8242C29.1484 20.6471 29.2904 20.4596 29.418 20.2617C29.5456 20.0638 29.651 19.8581 29.7344 19.6445C29.8177 19.4362 29.8594 19.2357 29.8594 19.043ZM31 18.7148V28.4258C31 28.8216 30.8607 29.1589 30.582 29.4375C30.3034 29.7161 29.9661 29.8555 29.5703 29.8555H16.4297C16.0339 29.8555 15.6966 29.7161 15.418 29.4375C15.1393 29.1589 15 28.8216 15 28.4258V18.7148C15 18.3242 15.1393 17.9883 15.418 17.707C15.6966 17.4258 16.0339 17.2852 16.4297 17.2852H29.5703C29.9661 17.2852 30.3034 17.4258 30.582 17.707C30.8607 17.9883 31 18.3242 31 18.7148Z" fill="black"/>
</g>
<defs>
<filter id="filter0_dd_1289_6143" x="0" y="0" width="47" height="49" filterUnits="userSpaceOnUse" color-interpolation-filters="sRGB">
<feFlood flood-opacity="0" result="BackgroundImageFix"/>
<feColorMatrix in="SourceAlpha" type="matrix" values="0 0 0 0 0 0 0 0 0 0 0 0 0 0 0 0 0 0 127 0" result="hardAlpha"/>
<feMorphology radius="1" operator="erode" in="SourceAlpha" result="effect1_dropShadow_1289_6143"/>
<feOffset dx="1" dy="3"/>
<feGaussianBlur stdDeviation="2"/>
<feComposite in2="hardAlpha" operator="out"/>
<feColorMatrix type="matrix" values="0 0 0 0 0 0 0 0 0 0 0 0 0 0 0 0 0 0 0.12 0"/>
<feBlend mode="normal" in2="BackgroundImageFix" result="effect1_dropShadow_1289_6143"/>
<feColorMatrix in="SourceAlpha" type="matrix" values="0 0 0 0 0 0 0 0 0 0 0 0 0 0 0 0 0 0 127 0" result="hardAlpha"/>
<feOffset dx="-1" dy="-1"/>
<feGaussianBlur stdDeviation="1"/>
<feComposite in2="hardAlpha" operator="out"/>
<feColorMatrix type="matrix" values="0 0 0 0 0 0 0 0 0 0 0 0 0 0 0 0 0 0 0.05 0"/>
<feBlend mode="normal" in2="effect1_dropShadow_1289_6143" result="effect2_dropShadow_1289_6143"/>
<feBlend mode="normal" in="SourceGraphic" in2="effect2_dropShadow_1289_6143" result="shape"/>
</filter>
</defs>
</svg>
