<svg width="47" height="49" viewBox="0 0 47 49" fill="none" xmlns="http://www.w3.org/2000/svg">
<g filter="url(#filter0_dd_1289_6138)">
<rect x="3" y="3" width="40" height="40" rx="20" fill="white" fill-opacity="0.01" shape-rendering="crispEdges"/>
<path d="M25.3065 23.8307C25.3498 23.8307 25.4736 23.8772 25.6778 23.97C25.882 24.0628 26.1001 24.1695 26.3321 24.2902C26.5642 24.4109 26.7761 24.5269 26.9679 24.6383C27.1598 24.7497 27.265 24.8239 27.2835 24.861C27.2959 24.8858 27.3036 24.9121 27.3067 24.9399C27.3098 24.9678 27.3114 24.9941 27.3114 25.0188C27.3114 25.1488 27.2928 25.2849 27.2557 25.4272C27.2186 25.5696 27.1752 25.7026 27.1257 25.8264C27.0082 26.1234 26.7483 26.3601 26.3461 26.5364C25.9438 26.7128 25.5942 26.8009 25.2972 26.8009C25.0373 26.8009 24.6923 26.7174 24.2623 26.5503C23.8322 26.3833 23.5027 26.2471 23.2738 26.1419C22.8963 25.9687 22.5529 25.7676 22.2435 25.5386C21.9279 25.3097 21.6355 25.0575 21.3663 24.7821C21.0972 24.5068 20.8419 24.2113 20.6006 23.8957C20.3654 23.5863 20.1334 23.2646 19.9044 22.9304C19.7002 22.6334 19.5223 22.307 19.3707 21.9512C19.2191 21.5954 19.1464 21.2349 19.1526 20.8698V20.7863C19.165 20.4336 19.2346 20.1257 19.3615 19.8627C19.4883 19.5998 19.6786 19.3476 19.9323 19.1063C20.0127 19.032 20.0978 18.9748 20.1875 18.9346C20.2773 18.8943 20.3778 18.8742 20.4892 18.8742C20.5511 18.8742 20.6145 18.8789 20.6795 18.8881C20.7445 18.8974 20.811 18.9021 20.879 18.9021C21.0214 18.9021 21.1188 18.9284 21.1714 18.981C21.224 19.0336 21.2751 19.1279 21.3246 19.2641C21.3431 19.3136 21.3864 19.425 21.4545 19.5982C21.5226 19.7715 21.5922 19.9571 21.6634 20.1551C21.7345 20.3531 21.7979 20.5357 21.8536 20.7028C21.9093 20.8698 21.9372 20.9688 21.9372 20.9998C21.9372 21.1978 21.8165 21.4004 21.5752 21.6077C21.3339 21.815 21.2132 21.9775 21.2132 22.095C21.2132 22.126 21.2178 22.1538 21.2271 22.1786C21.2364 22.2033 21.2472 22.2312 21.2596 22.2621C21.3772 22.5096 21.5365 22.7649 21.7376 23.0279C21.9387 23.2909 22.1414 23.5183 22.3456 23.7101C22.5869 23.9452 22.8391 24.1463 23.102 24.3134C23.365 24.4805 23.645 24.6383 23.9421 24.7868C23.9792 24.8053 24.0179 24.8224 24.0581 24.8378C24.0983 24.8533 24.1401 24.861 24.1834 24.861C24.3381 24.861 24.5284 24.6893 24.7542 24.3459C24.9801 24.0025 25.1642 23.8307 25.3065 23.8307ZM23.1531 29.4463C24.0689 29.4463 24.9321 29.273 25.7427 28.9265C26.5472 28.5738 27.251 28.0958 27.8544 27.4924C28.4577 26.8891 28.9357 26.1853 29.2884 25.3808C29.6349 24.5702 29.8082 23.707 29.8082 22.7912C29.8082 21.8692 29.6349 21.006 29.2884 20.2015C28.9357 19.3909 28.4577 18.6839 27.8544 18.0806C27.251 17.4773 26.5472 17.0024 25.7427 16.6559C24.9321 16.3031 24.0689 16.1268 23.1531 16.1268C22.2311 16.1268 21.3679 16.3031 20.5635 16.6559C19.7528 17.0024 19.0459 17.4773 18.4425 18.0806C17.8392 18.6839 17.3643 19.3909 17.0178 20.2015C16.6651 21.006 16.4887 21.8692 16.4887 22.7912C16.4887 23.1377 16.5166 23.4842 16.5722 23.8307C16.6279 24.1711 16.7084 24.5068 16.8136 24.8378C16.9188 25.1689 17.0518 25.4891 17.2127 25.7985C17.3736 26.1079 17.5561 26.4049 17.7603 26.6896L16.925 29.1678L19.4868 28.351C19.759 28.5243 20.0437 28.679 20.3407 28.8151C20.6315 28.9574 20.9316 29.075 21.241 29.1678C21.5504 29.2606 21.866 29.3318 22.1878 29.3813C22.5034 29.4246 22.8251 29.4463 23.1531 29.4463ZM23.1531 14.7902C24.2545 14.7902 25.291 15.0006 26.2625 15.4214C27.234 15.8421 28.0818 16.4145 28.8058 17.1385C29.5297 17.8625 30.1021 18.7072 30.5229 19.6725C30.9375 20.644 31.1448 21.6835 31.1448 22.7912C31.1448 23.8926 30.9375 24.9291 30.5229 25.9006C30.1021 26.8721 29.5297 27.7199 28.8058 28.4438C28.0818 29.1678 27.234 29.7402 26.2625 30.161C25.291 30.5756 24.2545 30.7829 23.1531 30.7829C22.8128 30.7829 22.4755 30.7643 22.1414 30.7272C21.8072 30.6839 21.4777 30.6204 21.1529 30.5369C20.828 30.4534 20.5078 30.3497 20.1922 30.226C19.8828 30.1022 19.5796 29.9568 19.2826 29.7897L14.8551 31.2098L16.2938 26.9123C16.1082 26.6029 15.9442 26.2812 15.8019 25.947C15.6595 25.6191 15.5404 25.2803 15.4445 24.9307C15.3486 24.581 15.2759 24.2268 15.2264 23.8679C15.1769 23.509 15.1521 23.1501 15.1521 22.7912C15.1521 21.6835 15.3625 20.644 15.7833 19.6725C16.2041 18.7072 16.7765 17.8625 17.5004 17.1385C18.2244 16.4145 19.0691 15.8421 20.0344 15.4214C21.0059 15.0006 22.0455 14.7902 23.1531 14.7902Z" fill="#23C761"/>
</g>
<defs>
<filter id="filter0_dd_1289_6138" x="0" y="0" width="47" height="49" filterUnits="userSpaceOnUse" color-interpolation-filters="sRGB">
<feFlood flood-opacity="0" result="BackgroundImageFix"/>
<feColorMatrix in="SourceAlpha" type="matrix" values="0 0 0 0 0 0 0 0 0 0 0 0 0 0 0 0 0 0 127 0" result="hardAlpha"/>
<feMorphology radius="1" operator="erode" in="SourceAlpha" result="effect1_dropShadow_1289_6138"/>
<feOffset dx="1" dy="3"/>
<feGaussianBlur stdDeviation="2"/>
<feComposite in2="hardAlpha" operator="out"/>
<feColorMatrix type="matrix" values="0 0 0 0 0 0 0 0 0 0 0 0 0 0 0 0 0 0 0.12 0"/>
<feBlend mode="normal" in2="BackgroundImageFix" result="effect1_dropShadow_1289_6138"/>
<feColorMatrix in="SourceAlpha" type="matrix" values="0 0 0 0 0 0 0 0 0 0 0 0 0 0 0 0 0 0 127 0" result="hardAlpha"/>
<feOffset dx="-1" dy="-1"/>
<feGaussianBlur stdDeviation="1"/>
<feComposite in2="hardAlpha" operator="out"/>
<feColorMatrix type="matrix" values="0 0 0 0 0 0 0 0 0 0 0 0 0 0 0 0 0 0 0.05 0"/>
<feBlend mode="normal" in2="effect1_dropShadow_1289_6138" result="effect2_dropShadow_1289_6138"/>
<feBlend mode="normal" in="SourceGraphic" in2="effect2_dropShadow_1289_6138" result="shape"/>
</filter>
</defs>
</svg>
