<?xml version="1.0" encoding="UTF-8"?>
<svg version="1.1" xmlns="http://www.w3.org/2000/svg" width="80" height="80">
<path d="M0 0 C3.37892602 1.81032261 5.85429949 3.67975286 8.4375 6.5 C13.59939456 12.0237096 19.98142341 14.0998151 27.4375 14.5 C35.4246704 14.19454164 42.08692373 10.20301864 47.9375 4.9375 C47.47285525 13.76575019 41.34115875 21.32621931 35.140625 27.18359375 C24.35010752 35.77391706 11.22955296 37.19043942 -2.0625 35.9375 C-11.07213178 34.13772906 -17.68780304 29.57770832 -23.0625 22.1875 C-24.95260758 16.04465035 -25.2140789 10.24065781 -22.3125 4.4375 C-15.90679374 -2.6799514 -8.66568981 -4.02901737 0 0 Z " fill="#2377BC" transform="translate(29.0625,37.0625)"/>
<path d="M0 0 C4.96666417 3.42442788 9.18646759 7.10601967 11 13 C11.63766619 18.39191159 11.70552335 22.58895329 9.25 27.5 C5.30018988 31.88867792 2.40135017 33.7472263 -3.5625 34.375 C-9.71008739 34.27329359 -15.41499214 31.45877605 -19.83984375 27.25 C-20.38769531 26.651875 -20.93554688 26.05375 -21.5 25.4375 C-26.66189456 19.9137904 -33.04392341 17.8376849 -40.5 17.4375 C-48.4871704 17.74295836 -55.14942373 21.73448136 -61 27 C-60.53535525 18.17174981 -54.40365875 10.61128069 -48.203125 4.75390625 C-35.45076364 -5.39823958 -14.44570628 -8.11529793 0 0 Z " fill="#2377BC" transform="translate(64,11)"/>
</svg>
